<svg width="38" height="38" viewBox="0 0 38 38" fill="none" xmlns="http://www.w3.org/2000/svg">
<path d="M19.0003 0.666992C16.5928 0.666992 14.2088 1.1412 11.9845 2.06253C9.76016 2.98387 7.73911 4.33429 6.0367 6.0367C2.59853 9.47487 0.666992 14.138 0.666992 19.0003C0.666992 23.8626 2.59853 28.5258 6.0367 31.9639C7.73911 33.6664 9.76016 35.0168 11.9845 35.9381C14.2088 36.8595 16.5928 37.3337 19.0003 37.3337C23.8626 37.3337 28.5258 35.4021 31.9639 31.9639C35.4021 28.5258 37.3337 23.8626 37.3337 19.0003C37.3337 16.5928 36.8595 14.2088 35.9381 11.9845C35.0168 9.76016 33.6664 7.73911 31.9639 6.0367C30.2615 4.33429 28.2405 2.98387 26.0162 2.06253C23.7919 1.1412 21.4079 0.666992 19.0003 0.666992ZM9.96199 30.5137C10.7503 28.8637 15.5537 27.2503 19.0003 27.2503C22.447 27.2503 27.2503 28.8637 28.0387 30.5137C25.4704 32.5588 22.2834 33.6707 19.0003 33.667C15.5903 33.667 12.4553 32.4937 9.96199 30.5137ZM30.6603 27.8553C28.0387 24.6653 21.677 23.5837 19.0003 23.5837C16.3237 23.5837 9.96199 24.6653 7.34032 27.8553C5.39024 25.3153 4.33332 22.2026 4.33366 19.0003C4.33366 10.9153 10.9153 4.33366 19.0003 4.33366C27.0853 4.33366 33.667 10.9153 33.667 19.0003C33.667 22.337 32.5303 25.417 30.6603 27.8553ZM19.0003 8.00033C15.4437 8.00033 12.5837 10.8603 12.5837 14.417C12.5837 17.9737 15.4437 20.8337 19.0003 20.8337C22.557 20.8337 25.417 17.9737 25.417 14.417C25.417 10.8603 22.557 8.00033 19.0003 8.00033ZM19.0003 17.167C18.271 17.167 17.5715 16.8773 17.0558 16.3615C16.5401 15.8458 16.2503 15.1463 16.2503 14.417C16.2503 13.6876 16.5401 12.9882 17.0558 12.4724C17.5715 11.9567 18.271 11.667 19.0003 11.667C19.7297 11.667 20.4291 11.9567 20.9449 12.4724C21.4606 12.9882 21.7503 13.6876 21.7503 14.417C21.7503 15.1463 21.4606 15.8458 20.9449 16.3615C20.4291 16.8773 19.7297 17.167 19.0003 17.167Z" fill="white"/>
</svg>
