<svg width="44" height="40" viewBox="0 0 44 40" fill="none" xmlns="http://www.w3.org/2000/svg">
<path d="M19.3493 3.1735C19.8153 2.27467 19.4639 1.17018 18.5701 0.705527C17.6764 0.240879 16.5611 0.591269 16.0951 1.48248L8.98333 15.1249H2.44444C1.09236 15.1249 0 16.2141 0 17.5624C0 18.9106 1.09236 19.9999 2.44444 19.9999L6.40903 35.8055C6.95139 37.9764 8.90694 39.4999 11.1528 39.4999H32.8472C35.0931 39.4999 37.0486 37.9764 37.591 35.8055L41.5556 19.9999C42.9076 19.9999 44 18.9106 44 17.5624C44 16.2141 42.9076 15.1249 41.5556 15.1249H35.0167L27.9049 1.48248C27.4389 0.591269 26.3312 0.240879 25.4299 0.705527C24.5285 1.17018 24.1847 2.27467 24.6507 3.1735L30.884 15.1249H13.116L19.3493 3.1735ZM14.6667 23.6561V30.9686C14.6667 31.6389 14.1167 32.1874 13.4444 32.1874C12.7722 32.1874 12.2222 31.6389 12.2222 30.9686V23.6561C12.2222 22.9858 12.7722 22.4374 13.4444 22.4374C14.1167 22.4374 14.6667 22.9858 14.6667 23.6561ZM22 22.4374C22.6722 22.4374 23.2222 22.9858 23.2222 23.6561V30.9686C23.2222 31.6389 22.6722 32.1874 22 32.1874C21.3278 32.1874 20.7778 31.6389 20.7778 30.9686V23.6561C20.7778 22.9858 21.3278 22.4374 22 22.4374ZM31.7778 23.6561V30.9686C31.7778 31.6389 31.2278 32.1874 30.5556 32.1874C29.8833 32.1874 29.3333 31.6389 29.3333 30.9686V23.6561C29.3333 22.9858 29.8833 22.4374 30.5556 22.4374C31.2278 22.4374 31.7778 22.9858 31.7778 23.6561Z" fill="white"/>
</svg>
