<svg width="68" height="68" viewBox="0 0 68 68" fill="none" xmlns="http://www.w3.org/2000/svg">
<path d="M43.4402 0C29.8823 0 18.8887 10.9934 18.8887 24.5581C18.8887 38.1157 29.8823 49.1091 43.4402 49.1091C57.0052 49.1091 67.9988 38.1157 67.9988 24.5581C67.9988 10.9934 57.0052 0 43.4402 0Z" fill="#D28147"/>
<path d="M24.5586 18.8906C10.9936 18.8906 0 29.884 0 43.4416C0 57.0063 10.9936 67.9997 24.5586 67.9997C38.1165 67.9997 49.1101 57.0063 49.1101 43.4416C49.1101 29.884 38.1165 18.8906 24.5586 18.8906Z" fill="#F6B059"/>
<path d="M21.7276 37.7748C19.1138 37.7748 17.0029 39.8927 17.0029 42.4994C17.0029 45.1061 19.1138 47.224 21.7276 47.224C24.3344 47.224 26.4452 45.1061 26.4452 42.4994C26.4452 39.8927 24.3344 37.7748 21.7276 37.7748ZM25.5031 26.4414C23.9377 26.4414 22.6697 27.7093 22.6697 29.2748C22.6697 30.8402 23.9377 32.1081 25.5031 32.1081C27.0686 32.1081 28.3365 30.8402 28.3365 29.2748C28.3365 27.7093 27.0686 26.4414 25.5031 26.4414ZM32.1121 49.1082C30.0295 49.1082 28.3365 50.8011 28.3365 52.8907C28.3365 54.9733 30.0295 56.6662 32.1121 56.6662C34.2017 56.6662 35.8947 54.9733 35.8947 52.8907C35.8947 50.8011 34.2017 49.1082 32.1121 49.1082ZM10.394 43.4415C8.8285 43.4415 7.56055 44.7094 7.56055 46.2749C7.56055 47.8403 8.8285 49.1082 10.394 49.1082C11.9594 49.1082 13.2274 47.8403 13.2274 46.2749C13.2274 44.7094 11.9594 43.4415 10.394 43.4415ZM36.8368 37.7748C35.2713 37.7748 34.0034 39.0427 34.0034 40.6082C34.0034 42.1736 35.2713 43.4415 36.8368 43.4415C38.4022 43.4415 39.6702 42.1736 39.6702 40.6082C39.6702 39.0427 38.4022 37.7748 36.8368 37.7748ZM18.8942 54.7749C17.8458 54.7749 17.0029 55.6249 17.0029 56.6662C17.0029 57.7074 17.8458 58.5574 18.8942 58.5574C19.9355 58.5574 20.7784 57.7074 20.7784 56.6662C20.7784 55.6249 19.9355 54.7749 18.8942 54.7749Z" fill="#6D420D"/>
<path d="M37.7755 7.55923C35.693 7.55923 34 9.24507 34 11.3347C34 13.4243 35.693 15.1101 37.7755 15.1101C39.8652 15.1101 41.5581 13.4243 41.5581 11.3347C41.5581 9.24507 39.8652 7.55923 37.7755 7.55923ZM48.1671 17.0014C46.6016 17.0014 45.3337 18.2693 45.3337 19.8347C45.3337 21.4002 46.6016 22.6681 48.1671 22.6681C49.7325 22.6681 51.0005 21.4002 51.0005 19.8347C51.0005 18.2693 49.7325 17.0014 48.1671 17.0014ZM50.0513 5.66797C48.4858 5.66797 47.2179 6.93589 47.2179 8.50132C47.2179 10.0667 48.4858 11.3347 50.0513 11.3347C51.6167 11.3347 52.8847 10.0667 52.8847 8.50132C52.8847 6.93589 51.6167 5.66797 50.0513 5.66797ZM56.6673 26.4435C55.626 26.4435 54.776 27.2935 54.776 28.3348C54.776 29.376 55.626 30.226 56.6673 30.226C57.7086 30.226 58.5586 29.376 58.5586 28.3348C58.5586 27.2935 57.7086 26.4435 56.6673 26.4435Z" fill="#7A441D"/>
</svg>
