<svg width="130" height="130" viewBox="0 0 130 130" fill="none" xmlns="http://www.w3.org/2000/svg">
<path d="M20.1861 20.1861L65 1.62359L109.814 20.1861L128.376 65L109.814 109.814L65 128.376L20.1861 109.814L1.62359 65L20.1861 20.1861Z" stroke="#13A1E6" stroke-width="3"/>
<path d="M27.0817 27.0807L65.0007 11.3742L102.92 27.0807L118.626 64.9997L102.92 102.919L65.0007 118.625L27.0817 102.919L11.3752 64.9997L27.0817 27.0807Z" stroke="#13A1E6"/>
<path fill-rule="evenodd" clip-rule="evenodd" d="M72.0509 28.5286C72.3818 29.1715 72.4655 29.997 72.6291 31.6479C72.941 34.7673 73.097 36.327 73.7513 37.1867C74.159 37.7205 74.7007 38.1368 75.3214 38.3934C75.9421 38.65 76.6197 38.7376 77.2853 38.6474C78.3504 38.5067 79.5677 37.5138 81.9947 35.5281C83.2767 34.4744 83.9196 33.9494 84.6081 33.7288C85.4851 33.4486 86.4339 33.4959 87.2786 33.8619C87.9443 34.151 88.5339 34.7368 89.7018 35.9085L93.1026 39.3093C94.2743 40.481 94.8601 41.0668 95.1492 41.7325C95.5153 42.5773 95.5626 43.5261 95.2824 44.403C95.0617 45.0915 94.5368 45.7344 93.4868 47.0164C91.4973 49.4472 90.5044 50.6607 90.3599 51.7296C90.2708 52.395 90.3594 53.072 90.6167 53.692C90.8739 54.312 91.2906 54.8529 91.8245 55.2598C92.6804 55.9141 94.2438 56.0701 97.367 56.382C99.0142 56.5456 99.8396 56.6293 100.486 56.9602C101.302 57.3832 101.937 58.0872 102.274 58.9422C102.544 59.6155 102.544 60.4448 102.544 62.1033V66.9117C102.544 68.5703 102.544 69.3996 102.278 70.0691C101.94 70.9267 101.302 71.6323 100.483 72.0548C99.8396 72.3857 99.0142 72.4694 97.3632 72.633C94.2439 72.9449 92.6842 73.1009 91.8245 73.7552C91.2907 74.1629 90.8743 74.7046 90.6178 75.3253C90.3612 75.946 90.2735 76.6236 90.3637 77.2892C90.5082 78.3543 87.7161 79.4476 89.7018 81.8746C90.7517 83.1565 89.0928 84.1593 89.3134 84.8517C89.5936 85.7286 90.1757 85.9917 89.8096 86.8364C89.5205 87.5021 89.9889 88.1457 88.8172 89.3173L90.3637 90.8059C89.192 91.9813 87.9443 94.864 87.2786 95.1493C86.4339 95.5154 88.2056 80.6662 87.3287 80.386C86.6402 80.1654 78.687 81.9321 77.405 80.8822C74.9742 78.8965 74.9969 81.023 73.9317 80.8822C73.2662 80.792 70.6897 81.1218 70.069 81.3784C69.4482 81.635 66.8966 81.4648 66.489 81.9986C65.8347 82.8545 65.3124 92.6446 65.0004 95.7677C64.8369 97.4187 66.3238 100.087 65.9928 100.73C65.5713 101.548 70.9251 101.943 70.069 102.282C69.3956 102.548 68.5664 102.548 66.9078 102.548H62.0994C60.4409 102.548 59.6116 102.548 58.9421 102.282C58.0845 101.944 63.4382 98.5718 63.0157 97.7524C62.6848 97.1096 60.2022 83.5255 60.0386 81.8746C59.7267 78.7552 56.7234 81.7419 56.0691 80.8822C55.6618 80.349 54.7044 81.1388 54.0844 80.8822C53.4644 80.6257 53.757 80.2965 53.092 80.386C52.0231 80.5268 50.561 78.4003 48.1302 80.386C46.8482 81.4398 44.3531 80.1654 43.6646 80.386C42.7876 80.6662 42.5733 83.233 41.7286 82.8669C41.0629 82.5778 42.3515 88.5042 41.1836 87.3326L41.7286 86.3402C40.557 85.1686 40.4804 86.0136 40.1913 85.3479C39.8252 84.5031 40.4072 85.2324 40.6875 84.3555C40.9081 83.667 38.6452 83.6527 39.6951 82.3708C41.6846 79.94 38.5028 78.3543 38.6435 77.2854C38.733 76.6204 38.645 75.9436 38.3885 75.3236C38.1319 74.7036 37.7159 74.1625 37.1828 73.7552C36.3268 73.1009 34.7634 72.9449 31.6402 72.633C29.9931 72.4694 29.1676 72.3857 28.5209 72.0548C27.7051 71.6318 27.07 70.9278 26.733 70.0729C26.4629 69.3996 26.4629 68.5703 26.4629 66.9117V62.1033C26.4629 60.4448 26.4629 59.6155 26.7292 58.946C27.0673 58.0884 27.7054 57.3827 28.5247 56.9602C29.1676 56.6293 29.9931 56.5456 31.644 56.382C34.7634 56.0701 36.3268 55.9141 37.1828 55.2598C37.7166 54.8529 38.1333 54.312 38.3906 53.692C38.6478 53.072 38.7364 52.395 38.6473 51.7296C38.5028 50.6607 37.5061 49.4472 35.5204 47.0126C34.4705 45.7306 33.9455 45.0915 33.7249 44.3992C33.4446 43.5223 33.492 42.5734 33.858 41.7287C34.1471 41.0668 34.7329 40.4772 35.9046 39.3055L39.3054 35.9085C40.4771 34.7368 41.0629 34.1472 41.7286 33.8619C42.5733 33.4959 43.5222 33.4486 44.3991 33.7288C45.0876 33.9494 45.7305 34.4744 47.0125 35.5243C49.4433 37.51 50.6568 38.5029 51.7219 38.6474C52.3885 38.7379 53.067 38.65 53.6885 38.3927C54.31 38.1354 54.8522 37.718 55.2597 37.1829C55.9064 36.327 56.0662 34.7673 56.3781 31.6441C56.5417 29.997 56.6254 29.1715 56.9563 28.5248C57.3786 27.7076 58.0827 27.071 58.9383 26.7331C59.6116 26.4668 60.4409 26.4668 62.0994 26.4668H66.9078C68.5664 26.4668 69.3956 26.4668 70.0652 26.7331C70.9228 27.0712 71.6284 27.7093 72.0509 28.5286ZM64.5036 79.7238C68.5392 79.7238 72.4095 78.1207 75.2632 75.2671C78.1168 72.4134 79.7199 68.5431 79.7199 64.5075C79.7199 60.4719 78.1168 56.6016 75.2632 53.748C72.4095 50.8944 68.5392 49.2912 64.5036 49.2912C60.468 49.2912 56.5977 50.8944 53.7441 53.748C50.8905 56.6016 49.2873 60.4719 49.2873 64.5075C49.2873 68.5431 50.8905 72.4134 53.7441 75.2671C56.5977 78.1207 60.468 79.7238 64.5036 79.7238Z" fill="#13A1E6"/>
<path d="M90.3719 64.6932L90.3725 64.6927C90.5585 64.5703 90.7741 64.5003 90.9966 64.4902C91.2191 64.4801 91.4401 64.5302 91.6365 64.6354C91.8328 64.7405 91.9971 64.8967 92.112 65.0874L92.5403 64.8295L92.112 65.0874C92.2267 65.2778 92.2879 65.4956 92.2893 65.7178V103.454C92.2893 103.782 92.159 104.096 91.9271 104.328C91.6952 104.56 91.3806 104.69 91.0527 104.69H38.9534C38.6255 104.69 38.3109 104.56 38.079 104.328C37.8471 104.096 37.7168 103.782 37.7168 103.454V74.4309H40.6901H41.1901V73.9309V54.9492L50.6099 57.0687V73.9309V74.4309H51.1099H58.1781H58.3596L58.4989 74.3144L69.4339 65.1671C69.4348 65.1664 69.4357 65.1656 69.4366 65.1649C69.6178 65.0187 69.8366 64.9267 70.0679 64.8994C70.3003 64.8719 70.5357 64.9109 70.7468 65.012C70.9579 65.113 71.136 65.2718 71.2604 65.47C71.3848 65.6682 71.4504 65.8977 71.4496 66.1317V66.1334V76.1885V77.1149L72.224 76.6065L90.3719 64.6932ZM58.0565 100.481H58.5565V99.9805V96.5072V96.0072H58.0565H44.1634H43.6634V96.5072V99.9805V100.481H44.1634H58.0565ZM58.0565 93.534H58.5565V93.034V89.5607V89.0607H58.0565H44.1634H43.6634V89.5607V93.034V93.534H44.1634H58.0565ZM58.0565 86.5874H58.5565V86.0874V82.6141V82.1141H58.0565H44.1634H43.6634V82.6141V86.0874V86.5874H44.1634H58.0565ZM71.9496 100.481H72.4496V99.9805V94.7706V94.2706H71.9496H68.4763H67.9763V94.7706V99.9805V100.481H68.4763H71.9496ZM71.9496 90.0607H72.4496V89.5607V84.3507V83.8507H71.9496H68.4763H67.9763V84.3507V89.5607V90.0607H68.4763H71.9496ZM78.8962 100.481H79.3962V99.9805V94.7706V94.2706H78.8962H75.4229H74.9229V94.7706V99.9805V100.481H75.4229H78.8962ZM78.8962 90.0607H79.3962V89.5607V84.3507V83.8507H78.8962H75.4229H74.9229V84.3507V89.5607V90.0607H75.4229H78.8962ZM85.8427 100.481H86.3427V99.9805V94.7706V94.2706H85.8427H82.3695H81.8695V94.7706V99.9805V100.481H82.3695H85.8427ZM85.8427 90.0607H86.3427V89.5607V84.3507V83.8507H85.8427H82.3695H81.8695V84.3507V89.5607V90.0607H82.3695H85.8427Z" fill="#13A1E6" stroke="white"/>
</svg>
