<svg width="42" height="42" viewBox="0 0 42 42" fill="none" xmlns="http://www.w3.org/2000/svg">
<path fill-rule="evenodd" clip-rule="evenodd" d="M25.1327 1.29616C25.3139 1.64824 25.3598 2.10033 25.4494 3.00449C25.6202 4.71283 25.7056 5.56699 26.0639 6.03783C26.2872 6.33016 26.5839 6.55818 26.9238 6.69869C27.2638 6.83921 27.6348 6.88721 27.9993 6.83783C28.5827 6.76074 29.2493 6.21699 30.5785 5.12949C31.2806 4.55241 31.6327 4.26491 32.0098 4.14408C32.49 3.99061 33.0097 4.01652 33.4723 4.21699C33.8368 4.37533 34.1598 4.69616 34.7994 5.33783L36.6618 7.20033C37.3035 7.84199 37.6244 8.16283 37.7827 8.52741C37.9832 8.99003 38.0091 9.50965 37.8556 9.98991C37.7348 10.367 37.4473 10.7191 36.8723 11.4212C35.7827 12.7524 35.2389 13.417 35.1598 14.0024C35.111 14.3668 35.1595 14.7376 35.3004 15.0771C35.4413 15.4167 35.6695 15.7129 35.9618 15.9357C36.4306 16.2941 37.2868 16.3795 38.9973 16.5503C39.8994 16.6399 40.3514 16.6857 40.7056 16.867C41.1524 17.0987 41.5002 17.4842 41.6848 17.9524C41.8327 18.3212 41.8327 18.7753 41.8327 19.6837V22.317C41.8327 23.2253 41.8327 23.6795 41.6869 24.0462C41.5017 24.5158 41.1522 24.9023 40.7035 25.1337C40.3514 25.3149 39.8994 25.3607 38.9952 25.4503C37.2869 25.6212 36.4327 25.7066 35.9618 26.0649C35.6695 26.2882 35.4415 26.5848 35.301 26.9248C35.1605 27.2647 35.1125 27.6358 35.1619 28.0003C35.241 28.5837 35.7848 29.2503 36.8723 30.5795C37.4473 31.2816 37.7348 31.6316 37.8556 32.0107C38.0091 32.491 37.9832 33.0106 37.7827 33.4732C37.6244 33.8378 37.3035 34.1587 36.6618 34.8003L34.7994 36.6607C34.1577 37.3045 33.8368 37.6253 33.4723 37.7816C33.0097 37.9821 32.49 38.008 32.0098 37.8545C31.6327 37.7337 31.2806 37.4462 30.5785 36.8712C29.2473 35.7837 28.5827 35.2399 27.9993 35.1628C27.6348 35.1134 27.2638 35.1614 26.9238 35.302C26.5839 35.4425 26.2872 35.6705 26.0639 35.9628C25.7056 36.4316 25.6202 37.2857 25.4494 38.9962C25.3598 39.9003 25.3139 40.3524 25.1327 40.7045C24.9018 41.1528 24.5162 41.5022 24.0473 41.6878C23.6785 41.8337 23.2243 41.8337 22.316 41.8337H19.6827C18.7744 41.8337 18.3202 41.8337 17.9535 41.6878C17.4838 41.5026 17.0974 41.1532 16.866 40.7045C16.6848 40.3524 16.6389 39.9003 16.5494 38.9962C16.3785 37.2878 16.2931 36.4337 15.9348 35.9628C15.7117 35.6708 15.4154 35.443 15.0758 35.3025C14.7363 35.162 14.3656 35.1138 14.0014 35.1628C13.416 35.2399 12.7514 35.7837 11.4202 36.8712C10.7181 37.4482 10.366 37.7357 9.98893 37.8566C9.50867 38.01 8.98905 37.9841 8.52643 37.7837C8.16185 37.6253 7.83893 37.3045 7.19935 36.6628L5.33685 34.8003C4.69518 34.1587 4.37435 33.8378 4.21602 33.4732C4.01554 33.0106 3.98963 32.491 4.1431 32.0107C4.26393 31.6337 4.55143 31.2816 5.12643 30.5795C6.21602 29.2482 6.75977 28.5837 6.83685 27.9982C6.88585 27.6341 6.83766 27.2634 6.69716 26.9239C6.55666 26.5843 6.32885 26.288 6.03685 26.0649C5.5681 25.7066 4.71185 25.6212 3.00143 25.4503C2.09935 25.3607 1.64727 25.3149 1.2931 25.1337C0.846323 24.902 0.498507 24.5164 0.313933 24.0482C0.166016 23.6795 0.166016 23.2253 0.166016 22.317V19.6837C0.166016 18.7753 0.166015 18.3212 0.311849 17.9545C0.49703 17.4848 0.846463 17.0984 1.29518 16.867C1.64727 16.6857 2.09935 16.6399 3.00352 16.5503C4.71185 16.3795 5.5681 16.2941 6.03685 15.9357C6.32923 15.7129 6.55744 15.4167 6.69831 15.0771C6.83919 14.7376 6.8877 14.3668 6.83893 14.0024C6.75977 13.417 6.21393 12.7524 5.12643 11.4191C4.55143 10.717 4.26393 10.367 4.1431 9.98783C3.98963 9.50756 4.01554 8.98794 4.21602 8.52533C4.37435 8.16283 4.69518 7.83991 5.33685 7.19824L7.19935 5.33783C7.84102 4.69616 8.16185 4.37324 8.52643 4.21699C8.98905 4.01652 9.50867 3.99061 9.98893 4.14408C10.366 4.26491 10.7181 4.55241 11.4202 5.12741C12.7514 6.21491 13.416 6.75866 13.9994 6.83783C14.3644 6.88736 14.736 6.83923 15.0764 6.69832C15.4167 6.55742 15.7136 6.32879 15.9368 6.03574C16.291 5.56699 16.3785 4.71283 16.5494 3.00241C16.6389 2.10033 16.6848 1.64824 16.866 1.29408C17.0973 0.846516 17.4829 0.497916 17.9514 0.312825C18.3202 0.166992 18.7744 0.166992 19.6827 0.166992H22.316C23.2243 0.166992 23.6785 0.166992 24.0452 0.312825C24.5149 0.498007 24.9013 0.84744 25.1327 1.29616ZM20.9994 29.3337C23.2095 29.3337 25.3291 28.4557 26.8919 26.8929C28.4547 25.3301 29.3327 23.2105 29.3327 21.0003C29.3327 18.7902 28.4547 16.6706 26.8919 15.1078C25.3291 13.545 23.2095 12.667 20.9994 12.667C18.7892 12.667 16.6696 13.545 15.1068 15.1078C13.544 16.6706 12.666 18.7902 12.666 21.0003C12.666 23.2105 13.544 25.3301 15.1068 26.8929C16.6696 28.4557 18.7892 29.3337 20.9994 29.3337Z" fill="black"/>
</svg>
