<svg width="78" height="78" viewBox="0 0 78 78" fill="none" xmlns="http://www.w3.org/2000/svg">
<path d="M12.5709 12.5709L39 1.62359L65.4291 12.5709L76.3764 39L65.4291 65.4291L39 76.3764L12.5709 65.4291L1.62359 39L12.5709 12.5709Z" stroke="#13A1E6" stroke-width="3"/>
<path d="M16.4017 16.4017L39 7.0412L61.5983 16.4017L70.9588 39L61.5983 61.5983L39 70.9588L16.4017 61.5983L7.0412 39L16.4017 16.4017Z" stroke="#13A1E6"/>
<path fill-rule="evenodd" clip-rule="evenodd" d="M43.2317 17.116C43.4303 17.5017 43.4805 17.997 43.5786 18.9876C43.7658 20.8592 43.8594 21.795 44.252 22.3108C44.4965 22.6311 44.8216 22.8809 45.194 23.0349C45.5664 23.1888 45.973 23.2414 46.3723 23.1873C47.0114 23.1028 47.7418 22.5071 49.198 21.3157C49.9672 20.6834 50.3529 20.3685 50.766 20.2361C51.2922 20.068 51.8615 20.0963 52.3683 20.316C52.7677 20.4894 53.1215 20.8409 53.8222 21.5439L55.8627 23.5844C56.5657 24.2874 56.9172 24.6389 57.0907 25.0383C57.3103 25.5452 57.3387 26.1145 57.1706 26.6406C57.0382 27.0537 56.7232 27.4395 56.0933 28.2087C54.8995 29.6671 54.3038 30.3952 54.2171 31.0366C54.1637 31.4358 54.2168 31.842 54.3712 32.214C54.5255 32.586 54.7755 32.9106 55.0958 33.1547C55.6094 33.5473 56.5475 33.6409 58.4214 33.828C59.4097 33.9262 59.9049 33.9764 60.293 34.175C60.7824 34.4288 61.1635 34.8512 61.3657 35.3641C61.5278 35.7681 61.5278 36.2657 61.5278 37.2608V40.1458C61.5278 41.141 61.5278 41.6386 61.368 42.0403C61.1651 42.5548 60.7823 42.9782 60.2907 43.2317C59.9049 43.4303 59.4097 43.4805 58.4191 43.5786C56.5475 43.7658 55.6117 43.8594 55.0958 44.252C54.7756 44.4965 54.5258 44.8216 54.3718 45.194C54.2179 45.5664 54.1653 45.973 54.2194 46.3723C54.3061 47.0114 52.6308 47.6674 53.8222 49.1236C54.4522 49.8927 53.4568 50.4944 53.5892 50.9098C53.7574 51.436 54.1066 51.5938 53.8869 52.1007C53.7135 52.5001 53.9945 52.8862 53.2915 53.5892L54.2194 54.4823C53.5164 55.1876 52.7677 56.9172 52.3683 57.0884C51.8615 57.308 52.9245 48.3986 52.3984 48.2304C51.9853 48.0981 47.2134 49.1581 46.4442 48.5281C44.9857 47.3367 44.9993 48.6126 44.3602 48.5281C43.9609 48.474 42.415 48.6719 42.0425 48.8259C41.6701 48.9798 40.1392 48.8777 39.8946 49.198C39.502 49.7116 39.1886 55.5856 39.0014 57.4594C38.9033 58.45 39.7954 60.0508 39.5969 60.4365C39.3439 60.9277 42.5563 61.1646 42.0425 61.368C41.6386 61.5278 41.141 61.5278 40.1458 61.5278H37.2608C36.2657 61.5278 35.7681 61.5278 35.3664 61.368C34.8518 61.1651 38.0641 59.1419 37.8106 58.6503C37.612 58.2646 36.1225 50.1141 36.0243 49.1236C35.8372 47.252 34.0352 49.044 33.6427 48.5281C33.3983 48.2082 32.8238 48.6821 32.4518 48.5281C32.0798 48.3742 32.2554 48.1768 31.8564 48.2304C31.215 48.3149 30.3378 47.039 28.8793 48.2304C28.1101 48.8627 26.613 48.0981 26.1999 48.2304C25.6737 48.3986 25.5452 49.9386 25.0384 49.719C24.6389 49.5455 25.4121 53.1014 24.7114 52.3984L25.0384 51.803C24.3354 51.1 24.2894 51.607 24.1159 51.2075C23.8963 50.7007 24.2455 51.1383 24.4136 50.6121C24.546 50.199 23.1883 50.1905 23.8182 49.4213C25.0119 47.9628 23.1028 47.0114 23.1873 46.3701C23.241 45.9711 23.1882 45.565 23.0342 45.193C22.8803 44.821 22.6307 44.4963 22.3108 44.252C21.7973 43.8594 20.8592 43.7658 18.9853 43.5786C17.997 43.4805 17.5017 43.4303 17.1137 43.2317C16.6242 42.9779 16.2432 42.5555 16.041 42.0425C15.8789 41.6386 15.8789 41.141 15.8789 40.1458V37.2608C15.8789 36.2657 15.8789 35.7681 16.0387 35.3664C16.2416 34.8518 16.6244 34.4285 17.116 34.175C17.5017 33.9764 17.997 33.9262 18.9876 33.828C20.8592 33.6409 21.7973 33.5473 22.3108 33.1547C22.6312 32.9106 22.8812 32.586 23.0355 32.214C23.1898 31.842 23.243 31.4358 23.1896 31.0366C23.1028 30.3952 22.5048 29.6671 21.3134 28.2064C20.6834 27.4372 20.3685 27.0537 20.2361 26.6383C20.068 26.1122 20.0963 25.5429 20.316 25.0361C20.4894 24.6389 20.8409 24.2851 21.5439 23.5822L23.5844 21.5439C24.2874 20.8409 24.6389 20.4872 25.0384 20.316C25.5452 20.0963 26.1145 20.068 26.6406 20.2361C27.0537 20.3685 27.4395 20.6834 28.2087 21.3134C29.6671 22.5048 30.3952 23.1006 31.0343 23.1873C31.4342 23.2416 31.8414 23.1888 32.2143 23.0345C32.5872 22.8801 32.9125 22.6296 33.157 22.3085C33.545 21.795 33.6409 20.8592 33.828 18.9853C33.9262 17.997 33.9764 17.5017 34.175 17.1137C34.4283 16.6234 34.8508 16.2415 35.3641 16.0387C35.7681 15.8789 36.2657 15.8789 37.2608 15.8789H40.1458C41.141 15.8789 41.6386 15.8789 42.0403 16.0387C42.5548 16.2416 42.9782 16.6244 43.2317 17.116ZM38.7033 47.8331C41.1247 47.8331 43.4469 46.8712 45.1591 45.1591C46.8712 43.4469 47.8331 41.1247 47.8331 38.7033C47.8331 36.282 46.8712 33.9598 45.1591 32.2476C43.4469 30.5354 41.1247 29.5736 38.7033 29.5736C36.282 29.5736 33.9598 30.5354 32.2476 32.2476C30.5354 33.9598 29.5736 36.282 29.5736 38.7033C29.5736 41.1247 30.5354 43.4469 32.2476 45.1591C33.9598 46.8712 36.282 47.8331 38.7033 47.8331Z" fill="#13A1E6"/>
<path d="M43.1698 45.1142V39.6792C43.1704 39.4821 43.1152 39.2887 43.0103 39.1217C42.9055 38.9547 42.7554 38.8209 42.5776 38.7358C42.3997 38.6507 42.2013 38.6178 42.0055 38.6409C41.8097 38.664 41.6245 38.7423 41.4713 38.8665L34.9068 44.3578L43.1698 45.1142ZM43.1698 45.1142L42.8954 45.2944L43.1698 45.7123H43.6698V45.3841L54.0585 38.5643C54.2152 38.4611 54.3969 38.4021 54.5844 38.3936C54.7718 38.3851 54.9581 38.4274 55.1235 38.516L43.1698 45.1142ZM54.3329 38.9823L54.3335 38.9819C54.415 38.9282 54.5095 38.8975 54.607 38.8931C54.7045 38.8887 54.8014 38.9107 54.8875 38.9567C54.9735 39.0028 55.0455 39.0713 55.0959 39.1549C55.146 39.2381 55.1729 39.3334 55.1736 39.4305V62.0715C55.1736 62.2152 55.1165 62.3531 55.0148 62.4547C54.9132 62.5564 54.7753 62.6135 54.6316 62.6135H23.3721C23.2283 62.6135 23.0905 62.5564 22.9888 62.4547C22.8872 62.3531 22.8301 62.2152 22.8301 62.0715V44.8578H24.414H24.914V44.3578V33.2188L30.166 34.4004V44.3578V44.8578H30.666H34.9068H35.0884L35.2276 44.7413L41.7888 39.2528C41.868 39.1893 41.9634 39.1494 42.0642 39.1375C42.166 39.1254 42.2692 39.1425 42.3617 39.1868C42.4543 39.2311 42.5323 39.3007 42.5868 39.3876C42.6414 39.4744 42.6701 39.575 42.6698 39.6775V39.6792V45.7123V46.6387L43.4442 46.1303L54.3329 38.9823ZM34.8339 60.4875H35.3339V59.9875V57.9036V57.4036H34.8339H26.498H25.998V57.9036V59.9875V60.4875H26.498H34.8339ZM34.8339 56.3196H35.3339V55.8196V53.7356V53.2356H34.8339H26.498H25.998V53.7356V55.8196V56.3196H26.498H34.8339ZM34.8339 52.1517H35.3339V51.6517V49.5677V49.0677H34.8339H26.498H25.998V49.5677V51.6517V52.1517H26.498H34.8339ZM43.1698 60.4875H43.6698V59.9875V56.8616V56.3616H43.1698H41.0858H40.5858V56.8616V59.9875V60.4875H41.0858H43.1698ZM43.1698 54.2356H43.6698V53.7356V50.6097V50.1097H43.1698H41.0858H40.5858V50.6097V53.7356V54.2356H41.0858H43.1698ZM47.3377 60.4875H47.8377V59.9875V56.8616V56.3616H47.3377H45.2537H44.7537V56.8616V59.9875V60.4875H45.2537H47.3377ZM47.3377 54.2356H47.8377V53.7356V50.6097V50.1097H47.3377H45.2537H44.7537V50.6097V53.7356V54.2356H45.2537H47.3377ZM51.5056 60.4875H52.0056V59.9875V56.8616V56.3616H51.5056H49.4217H48.9217V56.8616V59.9875V60.4875H49.4217H51.5056ZM51.5056 54.2356H52.0056V53.7356V50.6097V50.1097H51.5056H49.4217H48.9217V50.6097V53.7356V54.2356H49.4217H51.5056Z" fill="#13A1E6" stroke="white"/>
</svg>
