<svg width="35" height="26" viewBox="0 0 35 26" fill="none" xmlns="http://www.w3.org/2000/svg">
<path d="M30.2812 0.463131C29.9159 0.226792 29.4981 0.0838123 29.0646 0.0467593C28.6311 0.00970627 28.1951 0.0797148 27.795 0.250631L14.6838 5.41438C14.3737 5.54176 14.0415 5.60675 13.7062 5.60563H5.3125C4.60802 5.60563 3.93239 5.88548 3.43425 6.38363C2.9361 6.88177 2.65625 7.5574 2.65625 8.26188V8.47438H0V14.8494H2.65625V15.1256C2.6729 15.819 2.96008 16.4784 3.45643 16.9628C3.95278 17.4472 4.61893 17.7183 5.3125 17.7181L8.5 24.4756C8.71584 24.9307 9.05564 25.3156 9.48039 25.5863C9.90514 25.8569 10.3976 26.0023 10.9012 26.0056H12.24C12.9408 26 13.611 25.7177 14.1045 25.2202C14.5981 24.7226 14.875 24.0502 14.875 23.3494V17.9731L27.795 23.1369C28.1132 23.2619 28.4519 23.3267 28.7938 23.3281C29.3242 23.3184 29.8406 23.1561 30.2812 22.8606C30.6308 22.6246 30.9191 22.3088 31.1223 21.9393C31.3255 21.5698 31.4379 21.1572 31.45 20.7356V2.65188C31.4481 2.21948 31.3406 1.79409 31.1369 1.41265C30.9332 1.03122 30.6395 0.705275 30.2812 0.463131ZM12.2188 8.26188V15.1256H5.3125V8.26188H12.2188ZM12.2188 23.3494H10.88L8.26625 17.7181H12.2188V23.3494ZM15.6613 15.4444C15.4089 15.3155 15.1458 15.2089 14.875 15.1256V8.11313C15.1432 8.05738 15.4062 7.97919 15.6613 7.87938L28.7938 2.65188V20.6719L15.6613 15.4444ZM31.5138 9.00563V14.3181C32.2182 14.3181 32.8939 14.0383 33.392 13.5401C33.8901 13.042 34.17 12.3664 34.17 11.6619C34.17 10.9574 33.8901 10.2818 33.392 9.78363C32.8939 9.28548 32.2182 9.00563 31.5138 9.00563Z" fill="white"/>
</svg>
