<svg width="21" height="30" viewBox="0 0 21 30" fill="none" xmlns="http://www.w3.org/2000/svg">
<path d="M10.4997 14.2923C9.56037 14.2923 8.65953 13.9192 7.99534 13.255C7.33115 12.5908 6.95801 11.69 6.95801 10.7507C6.95801 9.81134 7.33115 8.91051 7.99534 8.24632C8.65953 7.58212 9.56037 7.20898 10.4997 7.20898C11.439 7.20898 12.3398 7.58212 13.004 8.24632C13.6682 8.91051 14.0413 9.81134 14.0413 10.7507C14.0413 11.2157 13.9497 11.6763 13.7717 12.106C13.5938 12.5357 13.3329 12.9261 13.004 13.255C12.6751 13.5839 12.2847 13.8447 11.855 14.0227C11.4253 14.2007 10.9648 14.2923 10.4997 14.2923ZM10.4997 0.833984C7.86961 0.833984 5.34727 1.87877 3.48753 3.73851C1.6278 5.59824 0.583008 8.12059 0.583008 10.7507C0.583008 18.1882 10.4997 29.1673 10.4997 29.1673C10.4997 29.1673 20.4163 18.1882 20.4163 10.7507C20.4163 8.12059 19.3716 5.59824 17.5118 3.73851C15.6521 1.87877 13.1297 0.833984 10.4997 0.833984Z" fill="white"/>
</svg>
