<svg width="21" height="20" viewBox="0 0 21 20" fill="none" xmlns="http://www.w3.org/2000/svg">
<path d="M10.5 20C7.84784 20 5.3043 18.9464 3.42893 17.0711C1.55357 15.1957 0.5 12.6522 0.5 10C0.5 7.34784 1.55357 4.8043 3.42893 2.92893C5.3043 1.05357 7.84784 0 10.5 0C13.1522 0 15.6957 1.05357 17.5711 2.92893C19.4464 4.8043 20.5 7.34784 20.5 10C20.5 12.6522 19.4464 15.1957 17.5711 17.0711C15.6957 18.9464 13.1522 20 10.5 20ZM18.25 12C18.5887 10.6882 18.5887 9.31182 18.25 8H14.43C14.5221 9.33174 14.5221 10.6683 14.43 12H18.25ZM17.43 14H14.21C14.0429 15.2054 13.7237 16.3848 13.26 17.51C15.0167 16.862 16.4917 15.6204 17.43 14ZM8.58 12H12.42C12.5286 10.6689 12.5286 9.33112 12.42 8H8.58C8.47142 9.33112 8.47142 10.6689 8.58 12ZM8.83 14C9.24 16.4 9.96 18 10.5 18C11.04 18 11.76 16.4 12.17 14H8.83ZM2.75 12H6.57C6.47794 10.6683 6.47794 9.33174 6.57 8H2.75C2.41129 9.31182 2.41129 10.6882 2.75 12ZM3.57 14C4.50826 15.6204 5.98328 16.862 7.74 17.51C7.32 16.55 7 15.35 6.79 14H3.57ZM17.43 6C16.4917 4.3796 15.0167 3.13804 13.26 2.49C13.68 3.45 14 4.65 14.21 6H17.43ZM8.83 6H12.17C11.76 3.6 11.04 2 10.5 2C9.96 2 9.24 3.6 8.83 6ZM3.57 6H6.79C6.99 4.65 7.32 3.45 7.74 2.49C5.98328 3.13804 4.50826 4.3796 3.57 6Z" fill="white"/>
</svg>
