<svg width="24" height="25" viewBox="0 0 24 25" fill="none" xmlns="http://www.w3.org/2000/svg">
<path d="M15 8.75V6.875C15 6.37772 14.8025 5.90081 14.4508 5.54917C14.0992 5.19754 13.6223 5 13.125 5H4.125C3.62772 5 3.15081 5.19754 2.79917 5.54917C2.44754 5.90081 2.25 6.37772 2.25 6.875V18.125C2.25 18.6223 2.44754 19.0992 2.79917 19.4508C3.15081 19.8025 3.62772 20 4.125 20H13.125C13.6223 20 14.0992 19.8025 14.4508 19.4508C14.8025 19.0992 15 18.6223 15 18.125V16.25M18 8.75L21.75 12.5M21.75 12.5L18 16.25M21.75 12.5H8.95312" stroke="white" stroke-linecap="round" stroke-linejoin="round"/>
</svg>
