<svg width="24" height="25" viewBox="0 0 24 25" fill="none" xmlns="http://www.w3.org/2000/svg">
<path d="M9.533 11.6492C9.36388 11.8183 9.22976 12.0191 9.13831 12.2401C9.04685 12.4611 8.99985 12.698 9 12.9372V15.4992H11.578C12.061 15.4992 12.525 15.3072 12.867 14.9652L20.467 7.36118C20.6365 7.19212 20.7709 6.99129 20.8627 6.77019C20.9544 6.54909 21.0016 6.31206 21.0016 6.07268C21.0016 5.8333 20.9544 5.59628 20.8627 5.37517C20.7709 5.15407 20.6365 4.95324 20.467 4.78418L19.716 4.03318C19.5469 3.86356 19.346 3.72898 19.1248 3.63715C18.9036 3.54532 18.6665 3.49805 18.427 3.49805C18.1875 3.49805 17.9504 3.54532 17.7292 3.63715C17.508 3.72898 17.3071 3.86356 17.138 4.03318L9.533 11.6492Z" stroke="white" stroke-width="1.5" stroke-linecap="round" stroke-linejoin="round"/>
<path d="M21 12.5C21 16.743 21 18.864 19.682 20.182C18.364 21.5 16.242 21.5 12 21.5C7.758 21.5 5.636 21.5 4.318 20.182C3 18.864 3 16.742 3 12.5C3 8.258 3 6.136 4.318 4.818C5.636 3.5 7.758 3.5 12 3.5" stroke="white" stroke-width="1.5" stroke-linecap="round" stroke-linejoin="round"/>
</svg>
