<svg width="20" height="20" viewBox="0 0 20 20" fill="none" xmlns="http://www.w3.org/2000/svg">
<path d="M4.56809 1.66037C4.4943 1.56544 4.40115 1.48731 4.29484 1.43115C4.18853 1.37499 4.07149 1.34209 3.95149 1.33465C3.83149 1.3272 3.71127 1.34537 3.59883 1.38795C3.48639 1.43053 3.3843 1.49655 3.29934 1.58162L2.00684 2.87537C1.40309 3.48037 1.18059 4.33662 1.44434 5.08787C2.54025 8.19675 4.32078 11.0196 6.65434 13.3479C8.98258 15.6814 11.8055 17.462 14.9143 18.5579C15.6656 18.8216 16.5218 18.5991 17.1268 17.9954L18.4193 16.7029C18.5044 16.6179 18.5704 16.5158 18.613 16.4034C18.6556 16.2909 18.6738 16.1707 18.6663 16.0507C18.6589 15.9307 18.626 15.8137 18.5698 15.7074C18.5136 15.6011 18.4355 15.5079 18.3406 15.4341L15.4568 13.1916C15.3553 13.1131 15.2374 13.0586 15.1118 13.0322C14.9863 13.0058 14.8564 13.0082 14.7318 13.0391L11.9943 13.7229C11.6289 13.8136 11.2462 13.8084 10.8834 13.7079C10.5205 13.6074 10.1898 13.4149 9.92309 13.1491L6.85309 10.0779C6.58707 9.81132 6.39436 9.48061 6.29363 9.11774C6.19289 8.75488 6.18754 8.37216 6.27809 8.00662L6.96309 5.26912C6.99404 5.1446 6.99639 5.01469 6.96998 4.88913C6.94357 4.76357 6.88908 4.64562 6.81059 4.54412L4.56809 1.66037ZM2.35559 0.639119C2.57433 0.420306 2.83712 0.250532 3.12651 0.14107C3.4159 0.0316089 3.72527 -0.0150353 4.03407 0.00423504C4.34286 0.0235054 4.64403 0.108249 4.91757 0.25284C5.1911 0.39743 5.43075 0.598558 5.62059 0.842869L7.86309 3.72537C8.27434 4.25412 8.41934 4.94287 8.25684 5.59287L7.57309 8.33037C7.53798 8.47217 7.54002 8.62062 7.57899 8.76141C7.61796 8.90219 7.69256 9.03056 7.79559 9.13412L10.8668 12.2054C10.9705 12.3086 11.0991 12.3833 11.2401 12.4223C11.3812 12.4613 11.5299 12.4632 11.6718 12.4279L14.4081 11.7441C14.7289 11.6644 15.0636 11.6584 15.387 11.7266C15.7105 11.7948 16.0143 11.9354 16.2756 12.1379L19.1581 14.3804C20.1943 15.1866 20.2893 16.7179 19.3618 17.6441L18.0693 18.9366C17.1443 19.8616 15.7618 20.2679 14.4731 19.8141C11.1739 18.6548 8.17876 16.7663 5.71059 14.2891C3.23355 11.8213 1.34503 8.82658 0.185589 5.52787C-0.266911 4.24037 0.139339 2.85662 1.06434 1.93162L2.35559 0.639119Z" fill="white"/>
</svg>
