<svg width="14" height="14" viewBox="0 0 14 14" fill="none" xmlns="http://www.w3.org/2000/svg">
<path fill-rule="evenodd" clip-rule="evenodd" d="M13.3895 4.34951V4.35229C13.7374 5.19006 13.9144 6.0803 13.9144 6.99918C13.9144 10.8349 10.7919 13.9574 6.95622 13.9574C3.12049 13.9574 -0.00195312 10.8349 -0.00195312 6.99918C-0.00195312 3.16344 3.12049 0.0410156 6.95622 0.0410156C7.68102 0.0410156 8.39719 0.153941 9.07903 0.37461C9.08184 0.37461 9.08184 0.37739 9.08184 0.37739H9.09056C9.10031 0.380718 9.1082 0.386656 9.11637 0.392764L9.12405 0.398427L9.12735 0.400709L9.13105 0.403077L9.13305 0.404244L9.13709 0.406423C9.15178 0.415174 9.16929 0.417954 9.18363 0.429485C9.18363 0.429485 9.18363 0.430429 9.18418 0.431218C9.18452 0.431785 9.18521 0.432265 9.18638 0.432265C9.20203 0.448206 9.21328 0.464164 9.22605 0.482233L9.22976 0.487535C9.23147 0.489783 9.23326 0.491911 9.23511 0.494004L9.23916 0.4985C9.2428 0.502498 9.24643 0.506496 9.24959 0.51094C9.25206 0.514338 9.25426 0.51801 9.25597 0.522128C9.26064 0.530279 9.26366 0.539168 9.26593 0.548451L9.26709 0.553633L9.2684 0.559965L9.27032 0.571427L9.273 0.578754L9.27588 0.586321L9.27608 0.586888C9.28089 0.599414 9.28583 0.612369 9.28782 0.626697C9.28782 0.631433 9.2872 0.636255 9.28659 0.641248V0.643548C9.28583 0.650051 9.28501 0.656932 9.28501 0.664465C9.28501 0.690701 9.28226 0.713763 9.27629 0.740017V0.742797C9.27293 0.752561 9.26702 0.761449 9.26133 0.769892C9.25687 0.776584 9.25261 0.782984 9.25 0.789316C9.24129 0.806818 9.23531 0.824304 9.22378 0.838615C8.85239 1.29111 8.64963 1.8565 8.64963 2.43621C8.64963 3.82466 9.78002 4.95548 11.1689 4.95548C11.8242 4.95548 12.4444 4.70339 12.9172 4.24534C12.9211 4.24209 12.925 4.23933 12.9289 4.23684C12.9345 4.23327 12.9401 4.23027 12.9458 4.22729C12.9507 4.22468 12.9557 4.22207 12.9605 4.2191C12.978 4.20757 12.9896 4.19604 13.0071 4.18729H13.013C13.0333 4.17893 13.0568 4.17576 13.0798 4.17298C13.0941 4.17298 13.1089 4.16423 13.1231 4.16701C13.1406 4.16701 13.155 4.17298 13.1724 4.17576C13.1927 4.17854 13.213 4.18132 13.2305 4.18729C13.238 4.19094 13.2444 4.19597 13.2511 4.20146L13.2548 4.20452L13.2623 4.21035C13.2854 4.22188 13.3056 4.23341 13.3259 4.25092C13.3259 4.25258 13.3259 4.25325 13.3265 4.25352C13.3269 4.25369 13.3276 4.25369 13.3287 4.25369C13.3402 4.26801 13.349 4.28549 13.3577 4.30299C13.3665 4.3173 13.3808 4.32606 13.3868 4.34354C13.3868 4.34529 13.3868 4.34608 13.3872 4.3469L13.3881 4.348L13.3895 4.34951ZM2.02744 7.86875C2.02744 8.5097 2.54675 9.02858 3.18728 9.02858C3.8278 9.02858 4.34711 8.5097 4.34711 7.86875C4.34711 7.22781 3.8278 6.70893 3.18728 6.70893C2.54634 6.70893 2.02744 7.22821 2.02744 7.86875ZM4.92641 2.94C4.44807 2.94 4.05684 3.33164 4.05684 3.80995C4.05684 4.28829 4.44849 4.67993 4.92641 4.67954C5.40515 4.67954 5.79638 4.28829 5.79638 3.80995C5.79638 3.33123 5.40474 2.94 4.92641 2.94ZM6.66636 10.7681C6.66636 11.2469 7.05759 11.6381 7.53593 11.6381C8.01426 11.6381 8.4059 11.2465 8.4059 10.7681C8.4059 10.2898 8.01426 9.89856 7.53593 9.89856C7.05759 9.89856 6.66636 10.2898 6.66636 10.7681ZM6.95622 6.85405C6.95622 7.495 7.47552 8.01388 8.11605 8.01388C8.75657 8.01388 9.27547 7.495 9.27588 6.85405C9.27588 6.21312 8.75657 5.69424 8.11605 5.69424C7.47511 5.69424 6.95622 6.21351 6.95622 6.85405Z" fill="white"/>
</svg>
